<svg width="80" height="74" viewBox="0 0 80 74" fill="none" xmlns="http://www.w3.org/2000/svg">
<path d="M74.1604 0.813953L3.11335 30.384C3.11335 30.384 -0.245649 31.605 0.0143509 33.857C0.281351 36.113 3.02235 37.145 3.02235 37.145L20.8994 43.527C20.8994 43.527 26.2953 62.299 27.3573 65.871C28.4193 69.433 29.2714 69.517 29.2714 69.517C30.2604 69.973 31.1594 69.247 31.1594 69.247L42.7094 58.078L60.7104 72.72C65.5793 74.973 67.3513 70.279 67.3513 70.279L80.0004 2.60095C80.0004 -1.90705 74.1604 0.813953 74.1604 0.813953ZM61.5824 64.836L42.3244 49.176L36.3484 54.953L37.6623 42.662L63.3324 18.333L28.3414 39.107L12.8204 33.567L72.0374 8.91895L61.5824 64.836Z" fill="url(#paint0_linear)"/>
<defs>
<linearGradient id="paint0_linear" x1="27.5" y1="73" x2="59.5" y2="4.5" gradientUnits="userSpaceOnUse">
<stop offset="0.222207" stop-color="#3AC4FF"/>
<stop offset="1" stop-color="#FF4B4B"/>
</linearGradient>
</defs>
</svg>
